<?xml version="1.0" encoding="iso-8859-1"?>
<!-- Generator: Adobe Illustrator 19.0.0, SVG Export Plug-In . SVG Version: 6.00 Build 0)  -->
<svg version="1.1" id="Capa_1" xmlns="http://www.w3.org/2000/svg" xmlns:xlink="http://www.w3.org/1999/xlink" x="0px" y="0px"
	 viewBox="0 0 480 480" style="enable-background:new 0 0 480 480;" xml:space="preserve">
<rect x="168" y="136" style="fill:#E7B900;" width="144" height="192"/>
<path style="fill:#FFB398;" d="M264,120c0,13.28-10.72,24-24,24s-24-10.72-24-24c0-2.8,0.48-5.52,1.44-8h45.12
	C263.52,114.48,264,117.2,264,120z"/>
<rect x="360" style="fill:#884D00;" width="16" height="448"/>
<g>
	<polyline style="fill:#F40E34;" points="368,8 272,8 368,72 	"/>
	<path style="fill:#F40E34;" d="M288,112h-96l24-24c0,0,0-24,24-24s24,24,24,24L288,112z"/>
</g>
<polygon style="fill:#69C229;" points="128,320 104,344 80,320 56,344 32.593,320.593 0,376 0,480 224,480 "/>
<polygon style="fill:#EBE5DD;" points="80,320 104,344 128,320 80,240 32.593,320.593 56,344 "/>
<polygon style="fill:#D4C8B8;" points="416,344 432,360 449.524,342.476 416,288 386.667,346.667 400,360 "/>
<polygon style="fill:#5EAC24;" points="449.524,342.476 432,360 416,344 400,360 386.667,346.667 320,480 480,480 480,392 "/>
<g>
	<path style="fill:#5AAAE7;" d="M64,88c-22.08,0-40-17.92-40-40S41.92,8,64,8c19.76,0,36.16,14.32,39.36,33.2
		c2.72-0.8,5.68-1.2,8.64-1.2c17.68,0,32,14.32,32,32c0,5.84-1.6,11.28-4.32,16H64z"/>
	<path style="fill:#5AAAE7;" d="M472,128c0-17.68-14.32-32-32-32s-32,14.32-32,32c0,2.8,0.32,5.44,1.04,8H408h64V128z"/>
</g>
<rect x="320" y="128" style="fill:#E7B900;" width="24" height="16"/>
<polygon style="fill:#806749;" points="480,456 448,424 416,424 416,392 280,392 280,480 480,480 "/>
<polygon style="fill:#A38563;" points="48,480 88,440 376,440 416,480 "/>
<g>
	<path style="fill:#EE8700;" d="M296,360c0,11.045,8.954,20,20,20s20-8.955,20-20v-24h-40V360z"/>
	<path style="fill:#EE8700;" d="M208,420c0,11.045,8.954,20,20,20s20-8.955,20-20v-28h-40V420z"/>
</g>
<path style="fill:#1E81CE;" d="M336,248l32-32v-48l-32,32l-24-24H184l-56,56l36,36c6.627,6.627,17.373,6.627,24,0s6.627-17.373,0-24
	l-12-12l32-32v192h40v-64h48v8h40v-48h-56v-96L336,248z"/>
<polygon style="fill:#F40E34;" points="272,160 272,200 216,200 216,160 200,160 200,232 216,232 216,216 272,216 272,256 288,256 
	288,160 "/>
<g>
</g>
<g>
</g>
<g>
</g>
<g>
</g>
<g>
</g>
<g>
</g>
<g>
</g>
<g>
</g>
<g>
</g>
<g>
</g>
<g>
</g>
<g>
</g>
<g>
</g>
<g>
</g>
<g>
</g>
</svg>
